<svg width="24" height="24" viewBox="0 0 24 24" fill="none" xmlns="http://www.w3.org/2000/svg">
<path d="M8.33451 1.63599H14.844L8.08651 21.6577C8.01705 21.8635 7.88483 22.0423 7.70844 22.1689C7.53206 22.2956 7.3204 22.3637 7.10326 22.3637H2.03726C1.87273 22.3638 1.71057 22.3246 1.56418 22.2495C1.41779 22.1744 1.29139 22.0656 1.19542 21.9319C1.09946 21.7983 1.03669 21.6437 1.01232 21.481C0.987946 21.3183 1.00266 21.1521 1.05526 20.9962L7.35101 2.34199C7.42043 2.13617 7.55267 1.95731 7.72911 1.83061C7.90555 1.70391 8.11729 1.636 8.33451 1.63599Z" fill="url(#paint0_linear_9_176)"/>
<path d="M17.7938 15.0652H7.47126C7.37529 15.0651 7.28152 15.0939 7.20215 15.1479C7.12278 15.2018 7.0615 15.2784 7.0263 15.3677C6.99109 15.457 6.98358 15.5548 7.00476 15.6484C7.02593 15.742 7.0748 15.8271 7.14501 15.8925L13.778 22.0835C13.9711 22.2636 14.2254 22.3638 14.4895 22.3637H20.3345L17.7938 15.0652Z" fill="#0078D4"/>
<path d="M8.33449 1.63599C8.11491 1.63515 7.9008 1.70454 7.72345 1.83403C7.54611 1.96352 7.41481 2.14633 7.34874 2.35574L1.06299 20.9792C1.00686 21.1357 0.989242 21.3034 1.01162 21.4681C1.034 21.6328 1.09571 21.7897 1.19155 21.9255C1.28739 22.0613 1.41453 22.172 1.56221 22.2483C1.70989 22.3246 1.87377 22.3642 2.03999 22.3637H7.23674C7.43029 22.3292 7.6112 22.2438 7.76097 22.1164C7.91075 21.9891 8.02403 21.8242 8.08924 21.6387L9.34274 17.9445L13.8202 22.1207C14.0079 22.2759 14.2433 22.3618 14.4867 22.3637H20.31L17.756 15.0652L10.3107 15.067L14.8675 1.63599H8.33449Z" fill="url(#paint1_linear_9_176)"/>
<path d="M16.6487 2.34099C16.5794 2.1355 16.4474 1.95693 16.2712 1.83046C16.095 1.70398 15.8836 1.63596 15.6667 1.63599H8.41199C8.62885 1.636 8.84024 1.70403 9.01641 1.8305C9.19257 1.95697 9.32463 2.13552 9.39399 2.34099L15.69 20.996C15.7426 21.1519 15.7574 21.3181 15.733 21.4809C15.7087 21.6436 15.6459 21.7982 15.5499 21.9319C15.454 22.0656 15.3276 22.1745 15.1812 22.2497C15.0347 22.3248 14.8726 22.364 14.708 22.364H21.963C22.1275 22.3639 22.2897 22.3247 22.4361 22.2496C22.5824 22.1744 22.7088 22.0655 22.8048 21.9318C22.9007 21.7981 22.9634 21.6435 22.9878 21.4808C23.0121 21.3181 22.9974 21.1519 22.9447 20.996L16.6487 2.34099Z" fill="url(#paint2_linear_9_176)"/>
<defs>
<linearGradient id="paint0_linear_9_176" x1="10.707" y1="3.17199" x2="3.94676" y2="23.1435" gradientUnits="userSpaceOnUse">
<stop stop-color="#114A8B"/>
<stop offset="1" stop-color="#0669BC"/>
</linearGradient>
<linearGradient id="paint1_linear_9_176" x1="12.8187" y1="12.4792" x2="11.255" y2="13.008" gradientUnits="userSpaceOnUse">
<stop stop-opacity="0.3"/>
<stop offset="0.071" stop-opacity="0.2"/>
<stop offset="0.321" stop-opacity="0.1"/>
<stop offset="0.623" stop-opacity="0.05"/>
<stop offset="1" stop-opacity="0"/>
</linearGradient>
<linearGradient id="paint2_linear_9_176" x1="11.9587" y1="2.58949" x2="19.3795" y2="22.3597" gradientUnits="userSpaceOnUse">
<stop stop-color="#3CCBF4"/>
<stop offset="1" stop-color="#2892DF"/>
</linearGradient>
</defs>
</svg>
