<svg width="24" height="26" viewBox="0 0 24 26" fill="none" xmlns="http://www.w3.org/2000/svg">
<g clip-path="url(#clip0_9_137)">
<path d="M24 18.6135V14.1845L23.5212 13.8853L12.0299 20.1696L1.13716 14.1845V11.611L12.0299 17.5362L24.0599 11.0125V6.64339L23.581 6.34414L12.0299 12.6883L1.55611 6.94264L12.0299 1.19701L20.4688 5.80549L21.1272 5.44638V4.96758L12.0299 0L0 6.52369V7.18204L12.0299 13.7656L22.9227 7.78055V10.414L12.0299 16.399L0.478803 10.0549L0 10.3541V14.783L12.0299 21.3067L22.9227 15.3815V17.9551L12.0299 23.9402L0.478803 17.6559L0 17.9551V18.6135L12.0299 25.1372L24 18.6135Z" fill="#FF3621"/>
</g>
<defs>
<clipPath id="clip0_9_137">
<rect width="24" height="25.1372" fill="white"/>
</clipPath>
</defs>
</svg>
