<svg width="54" height="51" viewBox="0 0 54 51" fill="none" xmlns="http://www.w3.org/2000/svg">
<g id="Design">
<path id="Vector" d="M39.0556 34.5278V26.75H36.7222V18.9722H34.3889V13.5278L31.2778 10.4167H22.7222L19.6111 13.5278V18.9722H17.2778V26.75H14.9444V34.5278H2.5V48.5278H51.5V34.5278H39.0556Z" fill="#A8A29E" stroke="black" stroke-width="3.11111" stroke-linecap="round" stroke-linejoin="round"/>
<path id="Vector_2" d="M27 10.0278V1.47223" stroke="black" stroke-width="2.33333" stroke-linecap="round" stroke-linejoin="round"/>
<path id="Vector_3" d="M37.8889 34.9167V48.1389" stroke="black" stroke-width="2.33333" stroke-linecap="round" stroke-linejoin="round"/>
<path id="Vector_4" d="M16.1111 34.9167V48.1389" stroke="black" stroke-width="2.33333" stroke-linecap="round" stroke-linejoin="round"/>
<path id="Vector_5" d="M23.1111 34.9167V48.1389" stroke="black" stroke-width="2.33333" stroke-linecap="round" stroke-linejoin="round"/>
<path id="Vector_6" d="M30.8889 34.9167V48.1389" stroke="black" stroke-width="2.33333" stroke-linecap="round" stroke-linejoin="round"/>
<path id="Vector_7" d="M20 19.3611H34" stroke="black" stroke-width="2.33333" stroke-linecap="round" stroke-linejoin="round"/>
<path id="Vector_8" d="M17.6667 27.1389H36.3334" stroke="black" stroke-width="2.33333" stroke-linecap="round" stroke-linejoin="round"/>
<path id="Vector_9" d="M37.8889 34.9167L27 24.0278L16.1111 34.9167H37.8889Z" fill="white" stroke="black" stroke-width="2.33333" stroke-linecap="round" stroke-linejoin="round"/>
<path id="Vector_10" d="M7.55557 38.8056V40.3611" stroke="black" stroke-width="2.33333" stroke-linecap="round" stroke-linejoin="round"/>
<path id="Vector_11" d="M11.4444 38.8056V40.3611" stroke="black" stroke-width="2.33333" stroke-linecap="round" stroke-linejoin="round"/>
<path id="Vector_12" d="M42.5556 38.8056V40.3611" stroke="black" stroke-width="2.33333" stroke-linecap="round" stroke-linejoin="round"/>
<path id="Vector_13" d="M46.4444 38.8056V40.3611" stroke="black" stroke-width="2.33333" stroke-linecap="round" stroke-linejoin="round"/>
</g>
</svg>
