<svg width="53" height="53" viewBox="0 0 53 53" fill="none" xmlns="http://www.w3.org/2000/svg">
<g id="Design">
<path id="Vector" d="M2.5 32.2674V42.1434L10.8566 50.5H20.7326L29.0891 42.1434V34.5465L32.8876 30.7481V26.9496L26.0504 20.1124H22.2519L18.4535 23.9108H10.8566L2.5 32.2674Z" fill="#B45309" stroke="black" stroke-width="3.03876" stroke-linecap="round" stroke-linejoin="round"/>
<path id="Vector_2" d="M21.1124 34.9263L41.624 14.4147H44.6628L50.7403 8.33719L44.6628 2.25967L38.5853 8.33719V11.376L18.0736 31.8876H15.7946L13.5155 34.1667V37.2054L15.7946 39.4845H18.8333L21.1124 37.2054V34.9263Z" fill="#78350F" stroke="black" stroke-width="2.27907" stroke-linecap="round" stroke-linejoin="round"/>
<path id="Vector_3" d="M40.8644 1.5L43.1434 3.77907" stroke="black" stroke-width="2.27907" stroke-linecap="round" stroke-linejoin="round"/>
<path id="Vector_4" d="M49.2209 9.8566L51.5 12.1357" stroke="black" stroke-width="2.27907" stroke-linecap="round" stroke-linejoin="round"/>
<path id="Vector_5" d="M37.8256 4.53876L40.1046 6.81783" stroke="black" stroke-width="2.27907" stroke-linecap="round" stroke-linejoin="round"/>
<path id="Vector_6" d="M46.1822 12.8954L48.4613 15.1744" stroke="black" stroke-width="2.27907" stroke-linecap="round" stroke-linejoin="round"/>
</g>
</svg>
