<svg width="24" height="24" viewBox="0 0 24 24" fill="none" xmlns="http://www.w3.org/2000/svg">
<g id="partoo">
<path id="Oval" d="M8.79433 17.5887C13.6513 17.5887 17.5887 13.6513 17.5887 8.79433C17.5887 3.93736 13.6513 0 8.79433 0C3.93736 0 0 3.93736 0 8.79433C0 13.6513 3.93736 17.5887 8.79433 17.5887Z" fill="#0085F2"/>
<path id="Oval_2" d="M8.79433 23.9788C13.6513 23.9788 17.5887 20.0414 17.5887 15.1845C17.5887 10.3275 13.6513 6.39014 8.79433 6.39014C3.93736 6.39014 0 10.3275 0 15.1845C0 20.0414 3.93736 23.9788 8.79433 23.9788Z" fill="#00EBA9"/>
<path id="Oval_3" d="M14.3284 20.7839C19.1853 20.7839 23.1227 16.8466 23.1227 11.9896C23.1227 7.13261 19.1853 3.19525 14.3284 3.19525C9.47138 3.19525 5.53403 7.13261 5.53403 11.9896C5.53403 16.8466 9.47138 20.7839 14.3284 20.7839Z" fill="#FF9600"/>
<path id="Path" d="M7.46598 17.489C4.89004 14.2752 4.89004 9.70397 7.46598 6.49017C4.32091 6.96779 1.7227 9.10898 0.600311 11.9896C1.723 14.8702 4.32001 17.0126 7.46598 17.489Z" fill="#15A2FF"/>
<path id="Path_2" d="M7.46597 6.49012C7.90563 6.4236 8.34967 6.39028 8.79433 6.39042C12.5257 6.39042 15.7113 8.71251 16.9899 11.9895C17.3866 10.9714 17.5896 9.88817 17.5887 8.7955C17.5917 6.79514 16.91 4.854 15.6567 3.2949C12.5523 2.82345 9.43169 4.04035 7.46597 6.48893L7.46597 6.49012Z" fill="#AD46FF"/>
<path id="Path_3" d="M16.9899 11.9896C15.7113 15.2669 12.5242 17.5887 8.79433 17.5887C8.34967 17.5888 7.90563 17.5555 7.46597 17.489C9.43169 19.9375 12.5523 21.1544 15.6567 20.683C16.9095 19.1245 17.5912 17.1843 17.5887 15.1848C17.5898 14.0917 17.3867 13.0081 16.9899 11.9896Z" fill="#FFBA01"/>
<path id="Path_4" d="M8.79434 6.39044C8.34968 6.3903 7.90564 6.42362 7.46598 6.49014C4.89004 9.70395 4.89004 14.2751 7.46598 17.4889C7.90564 17.5555 8.34968 17.5888 8.79434 17.5887C12.5257 17.5887 15.7114 15.2669 16.9899 11.9895C15.7114 8.71253 12.5242 6.39044 8.79434 6.39044Z" fill="#8A78FF"/>
<path id="Shape" fill-rule="evenodd" clip-rule="evenodd" d="M5.53372 11.9897C5.53361 9.16918 7.82002 6.88255 10.6406 6.88239C11.9951 6.88231 13.2942 7.42035 14.2521 8.37813C15.2099 9.33592 15.7481 10.635 15.7481 11.9895C15.7481 14.8101 13.4616 17.0967 10.641 17.0967C7.82042 17.0968 5.53383 14.8103 5.53372 11.9897ZM7.97104 11.9922C7.97121 13.4665 9.16631 14.6616 10.6406 14.6618L10.6421 14.6633C12.1176 14.6633 13.3137 13.4671 13.3137 11.9916C13.3137 10.5161 12.1176 9.32 10.6421 9.32C10.3495 9.32019 10.059 9.36953 9.78269 9.46597C9.90979 9.66049 9.97724 9.88793 9.97672 10.1203C9.97688 10.7866 9.43733 11.3271 8.77104 11.3281C8.53744 11.3281 8.30901 11.2593 8.11433 11.1301C8.02004 11.4078 7.97165 11.699 7.97104 11.9922Z" fill="white"/>
</g>
</svg>
