<svg width="26" height="26" viewBox="0 0 26 26" fill="none" xmlns="http://www.w3.org/2000/svg">
<path d="M13 14.9196C14.2351 14.9196 15.2364 13.9183 15.2364 12.6832C15.2364 11.4481 14.2351 10.4469 13 10.4469C11.7649 10.4469 10.7636 11.4481 10.7636 12.6832C10.7636 13.9183 11.7649 14.9196 13 14.9196Z" fill="#61DAFB"/>
<path d="M13 17.265C19.6274 17.265 25 15.2137 25 12.6832C25 10.1528 19.6274 8.10141 13 8.10141C6.37258 8.10141 1 10.1528 1 12.6832C1 15.2137 6.37258 17.265 13 17.265Z" stroke="#61DAFB" stroke-width="1.26832"/>
<path d="M9.03201 14.9741C12.3457 20.7136 16.8085 24.3408 19 23.0755C21.1914 21.8103 20.2817 16.1318 16.968 10.3923C13.6542 4.65279 9.19144 1.02567 6.99999 2.29091C4.80853 3.55614 5.71831 9.23461 9.03201 14.9741Z" stroke="#61DAFB" stroke-width="1.26832"/>
<path d="M9.03201 10.3923C5.7183 16.1318 4.80853 21.8103 6.99999 23.0755C9.19144 24.3407 13.6542 20.7136 16.968 14.9741C20.2817 9.2346 21.1914 3.55613 19 2.29089C16.8085 1.02566 12.3457 4.65278 9.03201 10.3923Z" stroke="#61DAFB" stroke-width="1.26832"/>
</svg>
