<svg width="24" height="24" viewBox="0 0 24 24" fill="none" xmlns="http://www.w3.org/2000/svg">
<path fill-rule="evenodd" clip-rule="evenodd" d="M22.8004 17.3891C21.5497 18.0411 15.0703 20.7051 13.6908 21.4242C12.3115 22.1435 11.5452 22.1365 10.4555 21.6156C9.36576 21.0946 2.47053 18.3094 1.22848 17.7158C0.607646 17.419 0.28125 17.1686 0.28125 16.932V14.563C0.28125 14.563 9.25791 12.6088 10.7071 12.0889C12.1563 11.569 12.6591 11.5502 13.8924 12.002C15.1257 12.4538 22.4999 13.7843 23.7188 14.2307C23.7188 14.2307 23.7182 16.3466 23.7182 16.5662C23.7184 16.8004 23.4371 17.0573 22.8004 17.3891Z" fill="#912626"/>
<path fill-rule="evenodd" clip-rule="evenodd" d="M22.8 15.0341C21.5493 15.6857 15.0701 18.3499 13.6907 19.069C12.3114 19.7883 11.5451 19.7812 10.4554 19.2603C9.36567 18.7397 2.47075 15.9541 1.22874 15.3607C-0.0132606 14.767 -0.039353 14.3584 1.18077 13.8807C2.4008 13.4028 9.25791 10.7125 10.7073 10.1926C12.1564 9.67282 12.6591 9.65387 13.8923 10.1058C15.1256 10.5575 21.5662 13.1211 22.7849 13.5674C24.0039 14.0142 24.0507 14.3821 22.8 15.0341Z" fill="#C6302B"/>
<path fill-rule="evenodd" clip-rule="evenodd" d="M22.8004 13.5559C21.5497 14.2078 15.0703 16.8719 13.6908 17.5913C12.3115 18.3103 11.5452 18.3033 10.4555 17.7824C9.36567 17.2617 2.47053 14.4762 1.22848 13.8825C0.607646 13.5858 0.28125 13.3357 0.28125 13.0991V10.7298C0.28125 10.7298 9.25791 8.77566 10.7071 8.25572C12.1563 7.73586 12.6591 7.717 13.8924 8.16874C15.1257 8.62057 22.4999 9.95078 23.7188 10.3973C23.7188 10.3973 23.7182 12.5131 23.7182 12.7331C23.7184 12.9672 23.4371 13.2241 22.8004 13.5559Z" fill="#912626"/>
<path fill-rule="evenodd" clip-rule="evenodd" d="M22.8 11.2008C21.5493 11.8527 15.0701 14.5167 13.6907 15.236C12.3114 15.9551 11.5451 15.948 10.4554 15.4271C9.36567 14.9065 2.47075 12.121 1.22874 11.5275C-0.0132606 10.934 -0.039353 10.5253 1.18077 10.0474C2.4008 9.56974 9.25791 6.87929 10.7073 6.35945C12.1564 5.83961 12.6591 5.82076 13.8923 6.27257C15.1256 6.72429 21.5662 9.28767 22.7849 9.73417C24.0039 10.1809 24.0507 10.5489 22.8 11.2008V11.2008Z" fill="#C6302B"/>
<path fill-rule="evenodd" clip-rule="evenodd" d="M22.8004 9.5805C21.5497 10.2325 15.0703 12.8966 13.6908 13.616C12.3115 14.3351 11.5452 14.328 10.4555 13.8071C9.36567 13.2864 2.47053 10.5008 1.22848 9.90735C0.607646 9.61053 0.28125 9.36031 0.28125 9.12391V6.75455C0.28125 6.75455 9.25791 4.80047 10.7071 4.28062C12.1563 3.76068 12.6591 3.74191 13.8924 4.19364C15.1257 4.64547 22.4999 5.97568 23.7188 6.4222C23.7188 6.4222 23.7182 8.53805 23.7182 8.75787C23.7184 8.9918 23.4371 9.2487 22.8004 9.5805Z" fill="#912626"/>
<path fill-rule="evenodd" clip-rule="evenodd" d="M22.8 7.22546C21.5493 7.87731 15.0701 10.5415 13.6907 11.2606C12.3114 11.9797 11.5451 11.9726 10.4554 11.4519C9.36576 10.9311 2.47075 8.14574 1.22874 7.55221C-0.0132606 6.95867 -0.039353 6.54989 1.18077 6.07208C2.4008 5.59436 9.25791 2.90417 10.7073 2.38415C12.1564 1.86423 12.6591 1.84555 13.8923 2.29736C15.1256 2.74917 21.5662 5.31256 22.7849 5.75906C24.0039 6.20547 24.0507 6.5736 22.8 7.22546Z" fill="#C6302B"/>
<path fill-rule="evenodd" clip-rule="evenodd" d="M14.8641 4.92088L12.8491 5.13009L12.3979 6.21549L11.6693 5.00428L9.34253 4.79516L11.0787 4.16907L10.5578 3.20795L12.1833 3.84367L13.7157 3.34194L13.3016 4.33576L14.8641 4.92088Z" fill="white"/>
<path fill-rule="evenodd" clip-rule="evenodd" d="M12.2776 10.1868L8.51685 8.62699L13.9057 7.79987L12.2776 10.1868Z" fill="white"/>
<path fill-rule="evenodd" clip-rule="evenodd" d="M7.06362 5.52417C8.65437 5.52417 9.94389 6.02408 9.94389 6.64063C9.94389 7.25727 8.65437 7.75709 7.06362 7.75709C5.47296 7.75709 4.18335 7.25727 4.18335 6.64063C4.18335 6.02408 5.47296 5.52417 7.06362 5.52417Z" fill="white"/>
<path fill-rule="evenodd" clip-rule="evenodd" d="M17.2455 5.21756L20.4348 6.47792L17.2482 7.737L17.2455 5.21756Z" fill="#621B1C"/>
<path fill-rule="evenodd" clip-rule="evenodd" d="M13.717 6.61327L17.2455 5.21756L17.2482 7.737L16.9023 7.87236L13.717 6.61327Z" fill="#9A2928"/>
</svg>
