<svg width="25" height="16" viewBox="0 0 25 16" fill="none" xmlns="http://www.w3.org/2000/svg">
<g clip-path="url(#clip0_9_231)">
<path d="M5.58334 13.6058C4.14471 13.6058 2.63428 12.904 1.82312 11.8954L0.492615 13.1616C1.79014 14.6319 3.48719 15.3091 5.49818 15.3091C8.25813 15.3091 9.99024 14.0796 9.99024 12.0064C9.99024 7.69679 2.50361 10.392 2.50361 7.96314C2.50361 7.07433 3.54021 6.57085 5.15459 6.57085C6.59322 6.57085 7.63191 7.03717 8.27775 7.70389L9.60825 6.43767C8.72737 5.49 7.06873 4.85126 5.20427 4.85126C2.4151 4.85126 0.580284 6.17091 0.580284 8.25913C0.580284 12.4502 8.03728 9.7846 8.03728 12.2281C8.03728 13.0873 7.06581 13.6058 5.58334 13.6058Z" fill="#0014DC"/>
<path d="M13.007 0.697327H11.0344V15.3091H13.007V0.697327Z" fill="#0014DC"/>
<path d="M19.6806 5.00131C18.1261 5.00131 16.7364 5.70084 15.9305 6.72791V0.690979H14.0511V15.3091H15.6328L15.7969 13.5792C16.3426 14.3351 17.4543 15.3091 19.5903 15.3091C22.4597 15.3091 24.4926 13.187 24.4926 10.1791C24.4926 7.17108 22.5416 5.00131 19.6806 5.00131ZM19.1659 13.5051C17.0959 13.5051 15.8601 12.2303 15.8601 10.1581C15.8601 8.08582 17.1262 6.81103 19.1659 6.81103C21.2056 6.81103 22.4716 8.08582 22.4716 10.1581C22.4716 12.2303 21.2056 13.5051 19.1659 13.5051Z" fill="#0014DC"/>
</g>
<defs>
<clipPath id="clip0_9_231">
<rect width="24" height="14.6181" fill="white" transform="translate(0.492615 0.690979)"/>
</clipPath>
</defs>
</svg>
