<svg width="47" height="47" viewBox="0 0 47 47" fill="none" xmlns="http://www.w3.org/2000/svg">
<g filter="url(#filter0_d_31_69)">
<rect width="45" height="45" rx="4" fill="#FB923C" shape-rendering="crispEdges"/>
<rect x="0.75" y="0.75" width="43.5" height="43.5" rx="3.25" stroke="#78350F" stroke-width="1.5" shape-rendering="crispEdges"/>
<mask id="path-3-outside-1_31_69" maskUnits="userSpaceOnUse" x="13" y="8" width="19" height="27" fill="black">
<rect fill="white" x="13" y="8" width="19" height="27"/>
<path d="M13.6821 23.92V8.8H31.3221V16.36H26.2821V13.84H18.7221V18.88H31.3221V34H13.6821V26.44H18.7221V28.96H26.2821V23.92H13.6821Z"/>
</mask>
<path d="M13.6821 23.92V8.8H31.3221V16.36H26.2821V13.84H18.7221V18.88H31.3221V34H13.6821V26.44H18.7221V28.96H26.2821V23.92H13.6821Z" fill="#FEF9C3"/>
<path d="M13.6821 23.92H13.3635V24.2386H13.6821V23.92ZM13.6821 8.8V8.48135H13.3635V8.8H13.6821ZM31.3221 8.8H31.6408V8.48135H31.3221V8.8ZM31.3221 16.36V16.6786H31.6408V16.36H31.3221ZM26.2821 16.36H25.9635V16.6786H26.2821V16.36ZM26.2821 13.84H26.6008V13.5214H26.2821V13.84ZM18.7221 13.84V13.5214H18.4035V13.84H18.7221ZM18.7221 18.88H18.4035V19.1986H18.7221V18.88ZM31.3221 18.88H31.6408V18.5614H31.3221V18.88ZM31.3221 34V34.3186H31.6408V34H31.3221ZM13.6821 34H13.3635V34.3186H13.6821V34ZM13.6821 26.44V26.1214H13.3635V26.44H13.6821ZM18.7221 26.44H19.0408V26.1214H18.7221V26.44ZM18.7221 28.96H18.4035V29.2786H18.7221V28.96ZM26.2821 28.96V29.2786H26.6008V28.96H26.2821ZM26.2821 23.92H26.6008V23.6014H26.2821V23.92ZM14.0008 23.92V8.8H13.3635V23.92H14.0008ZM13.6821 9.11864H31.3221V8.48135H13.6821V9.11864ZM31.0035 8.8V16.36H31.6408V8.8H31.0035ZM31.3221 16.0414H26.2821V16.6786H31.3221V16.0414ZM26.6008 16.36V13.84H25.9635V16.36H26.6008ZM26.2821 13.5214H18.7221V14.1586H26.2821V13.5214ZM18.4035 13.84V18.88H19.0408V13.84H18.4035ZM18.7221 19.1986H31.3221V18.5614H18.7221V19.1986ZM31.0035 18.88V34H31.6408V18.88H31.0035ZM31.3221 33.6814H13.6821V34.3186H31.3221V33.6814ZM14.0008 34V26.44H13.3635V34H14.0008ZM13.6821 26.7586H18.7221V26.1214H13.6821V26.7586ZM18.4035 26.44V28.96H19.0408V26.44H18.4035ZM18.7221 29.2786H26.2821V28.6414H18.7221V29.2786ZM26.6008 28.96V23.92H25.9635V28.96H26.6008ZM26.2821 23.6014H13.6821V24.2386H26.2821V23.6014Z" fill="#461C00" mask="url(#path-3-outside-1_31_69)"/>
</g>
<defs>
<filter id="filter0_d_31_69" x="0" y="0" width="47" height="47" filterUnits="userSpaceOnUse" color-interpolation-filters="sRGB">
<feFlood flood-opacity="0" result="BackgroundImageFix"/>
<feColorMatrix in="SourceAlpha" type="matrix" values="0 0 0 0 0 0 0 0 0 0 0 0 0 0 0 0 0 0 127 0" result="hardAlpha"/>
<feOffset dx="2" dy="2"/>
<feComposite in2="hardAlpha" operator="out"/>
<feColorMatrix type="matrix" values="0 0 0 0 0 0 0 0 0 0 0 0 0 0 0 0 0 0 0.25 0"/>
<feBlend mode="normal" in2="BackgroundImageFix" result="effect1_dropShadow_31_69"/>
<feBlend mode="normal" in="SourceGraphic" in2="effect1_dropShadow_31_69" result="shape"/>
</filter>
</defs>
</svg>
