<svg width="24" height="26" viewBox="0 0 24 26" fill="none" xmlns="http://www.w3.org/2000/svg">
<g clip-path="url(#clip0_9_247)">
<path d="M13.7142 3.95874V7.91789L20.5711 11.877V7.91789L13.7142 3.95874ZM0 7.91789V11.877L3.42845 13.8562V9.89747L0 7.91789ZM10.2854 9.89747L6.85691 11.877V23.7537L10.2854 25.7333V17.8154L13.7142 19.7949V15.8358L10.2854 13.8562V9.89747Z" fill="#E55B2D"/>
<path d="M13.7142 3.95874L3.42847 9.89747V13.8562L10.2854 9.89747V13.8562L13.7142 11.877V3.95874ZM24 5.93832L20.5711 7.91789V11.877L24 9.89747V5.93832ZM17.1427 13.8562L13.7142 15.8358V19.7949L17.1427 17.8154V13.8562ZM13.7142 19.7949L10.2854 17.8154V25.7333L13.7142 23.7537V19.7949Z" fill="#ED8E24"/>
<path d="M13.7142 0L0 7.91789L3.42845 9.89747L13.7142 3.95874L20.5711 7.91789L24 5.93832L13.7142 0ZM13.7142 11.877L10.2854 13.8562L13.7142 15.8358L17.1427 13.8562L13.7142 11.877Z" fill="#F8BF3C"/>
</g>
<defs>
<clipPath id="clip0_9_247">
<rect width="24" height="25.7333" fill="white"/>
</clipPath>
</defs>
</svg>
