<svg width="24" height="24" viewBox="0 0 24 24" fill="none" xmlns="http://www.w3.org/2000/svg">
<g clip-path="url(#clip0_8_161)">
<g clip-path="url(#clip1_8_161)">
<g clip-path="url(#clip2_8_161)">
<path fill-rule="evenodd" clip-rule="evenodd" d="M23.2954 14.3158C23.1592 13.9032 22.8022 13.6157 22.3405 13.5467C22.1229 13.5142 21.8735 13.528 21.5786 13.5889C21.0644 13.695 20.6829 13.7353 20.4045 13.7432C21.4553 11.9689 22.3098 9.94564 22.8017 8.04107C23.5971 4.96149 23.1721 3.55854 22.6754 2.92391C21.3609 1.2443 19.443 0.341926 17.1292 0.314265C15.895 0.299201 14.8114 0.542902 14.2462 0.718107C13.7199 0.625308 13.154 0.57345 12.5602 0.563845C11.4473 0.546104 10.4639 0.788703 9.6236 1.28734C9.1583 1.13008 8.41176 0.908323 7.54954 0.766763C5.52162 0.433832 3.88725 0.69328 2.69178 1.53781C1.24417 2.56038 0.573055 4.33699 0.697189 6.81836C0.736555 7.6062 1.1773 10.0032 1.87119 12.2765C2.26999 13.5831 2.69525 14.6681 3.13515 15.5018C3.75897 16.6838 4.42646 17.38 5.17583 17.6299C5.59589 17.7699 6.35901 17.8679 7.16171 17.1995C7.26343 17.3226 7.39911 17.4451 7.5793 17.5588C7.80804 17.703 8.0878 17.8209 8.36715 17.8908C9.37402 18.1425 10.3171 18.0795 11.1217 17.7268C11.1266 17.8698 11.1305 18.0066 11.1337 18.1246C11.1391 18.3162 11.1443 18.5039 11.1514 18.6795C11.199 19.8669 11.2798 20.7901 11.5191 21.436C11.5323 21.4716 11.55 21.5257 11.5686 21.5831C11.688 21.9487 11.8877 22.5607 12.3956 23.0401C12.9217 23.5366 13.558 23.6889 14.1407 23.6888C14.433 23.6888 14.7118 23.6505 14.9564 23.5981C15.8283 23.4113 16.8184 23.1266 17.5346 22.1067C18.2118 21.1426 18.541 19.6904 18.6006 17.4023C18.6083 17.3376 18.6154 17.2758 18.6223 17.217C18.6269 17.1772 18.6316 17.1366 18.6364 17.0961L18.796 17.1101L18.8371 17.1129C19.7251 17.1533 20.8108 16.965 21.4776 16.6553C22.0046 16.4107 23.693 15.5194 23.2954 14.3158Z" fill="black"/>
<path fill-rule="evenodd" clip-rule="evenodd" d="M21.7771 14.5499C19.1369 15.0945 18.9554 14.2006 18.9554 14.2006C21.7431 10.0642 22.9084 4.81353 21.9027 3.52846C19.1592 0.0230575 14.41 1.68089 14.3307 1.72393L14.3052 1.7285C13.7836 1.62021 13.1998 1.5557 12.5437 1.545C11.349 1.52542 10.4428 1.85819 9.75519 2.37966C9.75519 2.37966 1.28306 -1.11052 1.67709 6.76923C1.76091 8.44559 4.07977 19.4533 6.84563 16.1285C7.85654 14.9127 8.83329 13.8847 8.83329 13.8847C9.31844 14.207 9.89922 14.3714 10.5081 14.3123L10.5554 14.2722C10.5407 14.4231 10.5474 14.5708 10.5743 14.7456C9.86179 15.5416 10.0712 15.6814 8.6468 15.9746C7.20554 16.2716 8.05222 16.8005 8.60502 16.9387C9.27519 17.1063 10.8256 17.3437 11.8732 15.8771L11.8315 16.0445C12.1106 16.2681 12.3067 17.499 12.2738 18.6148C12.241 19.7306 12.219 20.4967 12.439 21.095C12.659 21.6934 12.8782 23.0397 14.7507 22.6385C16.3153 22.3032 17.1261 21.4343 17.2389 19.985C17.3189 18.9546 17.5 19.1069 17.5115 18.1857L17.6568 17.7495C17.8243 16.3528 17.6834 15.9022 18.6473 16.1118L18.8816 16.1323C19.5911 16.1646 20.5196 16.0182 21.0646 15.7649C22.2381 15.2203 22.9341 14.311 21.777 14.5499H21.7771Z" fill="#336791"/>
<path fill-rule="evenodd" clip-rule="evenodd" d="M10.2511 7.51892C10.0132 7.4858 9.79769 7.51645 9.68867 7.59896C9.62732 7.64541 9.60837 7.69921 9.60328 7.73627C9.58958 7.83437 9.65834 7.94281 9.70054 7.99876C9.82 8.15712 9.99457 8.26598 10.1674 8.28996C10.1924 8.29343 10.2173 8.29511 10.2421 8.29511C10.5302 8.29511 10.7921 8.07077 10.8152 7.90517C10.8441 7.69779 10.543 7.55954 10.2511 7.51892Z" fill="white"/>
<path fill-rule="evenodd" clip-rule="evenodd" d="M18.1332 7.52549H18.1332C18.1105 7.36293 17.8212 7.31658 17.5467 7.35474C17.2726 7.39295 17.0067 7.51667 17.0289 7.67959C17.0468 7.8063 17.2755 8.0226 17.5463 8.02255C17.5691 8.02255 17.5922 8.02102 17.6155 8.01777C17.7962 7.99273 17.9289 7.87794 17.9919 7.81176C18.0879 7.71098 18.1433 7.59855 18.1332 7.52549Z" fill="white"/>
<path fill-rule="evenodd" clip-rule="evenodd" d="M22.6557 14.488C22.555 14.1836 22.231 14.0856 21.6927 14.1968C20.0942 14.5267 19.5218 14.2982 19.3337 14.1598C20.5762 12.267 21.5983 9.97906 22.1497 7.84433C22.411 6.83315 22.5552 5.89409 22.567 5.12871C22.58 4.28848 22.437 3.67117 22.1419 3.29405C20.952 1.77368 19.2058 0.958175 17.0919 0.935763C15.6388 0.919439 14.411 1.29137 14.1729 1.39592C13.6717 1.27127 13.1252 1.19474 12.5304 1.18498C11.4394 1.16734 10.4965 1.42852 9.7157 1.96085C9.37658 1.83467 8.50014 1.53381 7.42838 1.36118C5.57535 1.06278 4.10291 1.28885 3.0521 2.03329C1.79827 2.92159 1.21943 4.50946 1.3316 6.75268C1.36934 7.50746 1.79932 9.82916 2.47799 12.0527C3.37128 14.9791 4.34225 16.6358 5.36398 16.9766C5.48355 17.0165 5.62149 17.0444 5.77349 17.0444C6.14621 17.0444 6.60312 16.8764 7.07855 16.3049C7.86823 15.3548 8.60553 14.5587 8.87731 14.2695C9.27895 14.4851 9.72011 14.6055 10.1715 14.6175C10.1722 14.6293 10.1735 14.6411 10.1745 14.6529C10.084 14.7603 10.0097 14.8544 9.94639 14.9348C9.63372 15.3317 9.56863 15.4143 8.56212 15.6216C8.27585 15.6806 7.51536 15.8373 7.50428 16.3704C7.49216 16.9527 8.40309 17.1973 8.50691 17.2232C8.8686 17.3138 9.21702 17.3584 9.54932 17.3584C10.3575 17.3584 11.0687 17.0928 11.6371 16.5789C11.6195 18.6551 11.7062 20.7009 11.9554 21.3242C12.1595 21.8345 12.6583 23.0816 14.2339 23.0815C14.465 23.0815 14.7195 23.0546 14.9994 22.9946C16.6436 22.642 17.3576 21.9153 17.6339 20.3132C17.7817 19.457 18.0354 17.4122 18.1546 16.3155C18.4064 16.394 18.7306 16.43 19.081 16.4299C19.8118 16.4299 20.6551 16.2747 21.1839 16.0292C21.778 15.7533 22.8501 15.0762 22.6557 14.488ZM18.74 7.07674C18.7346 7.40054 18.69 7.69447 18.6428 8.00132C18.5919 8.33131 18.5394 8.67248 18.5261 9.08666C18.5131 9.48972 18.5634 9.90878 18.6121 10.314C18.7105 11.1325 18.8114 11.9752 18.4206 12.8067C18.3599 12.6988 18.3013 12.5812 18.2475 12.4508C18.199 12.3331 18.0935 12.144 17.9475 11.8822C17.3794 10.8634 16.0491 8.47764 16.7301 7.5041C16.9329 7.21426 17.4477 6.91639 18.74 7.07674ZM17.1736 1.59144C19.0676 1.63327 20.5658 2.34181 21.6265 3.69725C22.4401 4.73693 21.5442 9.46767 18.9508 13.5489C18.9251 13.5163 18.899 13.4835 18.8721 13.4498C18.8613 13.4363 18.8503 13.4226 18.8393 13.4087C19.5094 12.3019 19.3784 11.2069 19.2617 10.2359C19.2138 9.8375 19.1686 9.46116 19.1801 9.10771C19.192 8.73295 19.2415 8.41167 19.2894 8.10094C19.3483 7.71799 19.4082 7.32181 19.3917 6.85472C19.404 6.80575 19.409 6.74785 19.4026 6.67915C19.3604 6.23121 18.849 4.89083 17.8067 3.67747C17.2367 3.01391 16.4052 2.27126 15.27 1.77037C15.7583 1.66917 16.426 1.5748 17.1736 1.59144ZM6.57541 15.8865C6.05163 16.5163 5.68989 16.3956 5.57095 16.356C4.79586 16.0974 3.89658 14.4593 3.1037 11.8616C2.41763 9.61396 2.01668 7.35377 1.98497 6.71998C1.88477 4.71557 2.37065 3.31861 3.42918 2.56792C5.15183 1.34627 7.98408 2.07748 9.12212 2.44836C9.10575 2.46447 9.08874 2.47959 9.07252 2.49596C7.20505 4.38201 7.24935 7.60435 7.25392 7.80129C7.25376 7.87729 7.26011 7.98489 7.26888 8.1329C7.301 8.67484 7.36079 9.68355 7.20107 10.8259C7.05258 11.8874 7.37979 12.9264 8.09866 13.6765C8.17309 13.7541 8.25077 13.827 8.33103 13.8956C8.01101 14.2383 7.31559 14.9961 6.57541 15.8865ZM8.57105 13.2238C7.99164 12.6193 7.72852 11.7783 7.84903 10.9165C8.01773 9.70975 7.95542 8.65878 7.92199 8.09417C7.91732 8.01517 7.91317 7.94594 7.9107 7.8913C8.18354 7.64944 9.44781 6.97198 10.3494 7.17857C10.7609 7.27284 11.0115 7.55296 11.1158 8.03491C11.6552 10.5298 11.1872 11.5697 10.8111 12.4053C10.7336 12.5775 10.6604 12.7402 10.5978 12.9086L10.5494 13.0387C10.4267 13.3677 10.3125 13.6736 10.2417 13.9642C9.62585 13.9623 9.02665 13.6992 8.57105 13.2238ZM8.66558 16.5885C8.48576 16.5436 8.32399 16.4655 8.22909 16.4008C8.30835 16.3635 8.44944 16.3128 8.69408 16.2624C9.87816 16.0186 10.061 15.8466 10.4603 15.3395C10.5519 15.2233 10.6557 15.0915 10.7994 14.931C10.7994 14.9309 10.7995 14.9309 10.7995 14.9308C11.0136 14.6912 11.1115 14.7318 11.2891 14.8054C11.433 14.865 11.5732 15.0454 11.63 15.2439C11.6569 15.3376 11.6871 15.5156 11.5883 15.654C10.7541 16.822 9.53856 16.807 8.66558 16.5885ZM14.8622 22.3549C13.4137 22.6652 12.9008 21.9262 12.5629 21.0813C12.3447 20.5357 12.2375 18.076 12.3136 15.3597C12.3146 15.3235 12.3095 15.2886 12.2995 15.2558C12.2908 15.1925 12.2775 15.1284 12.259 15.0639C12.1458 14.6686 11.8702 14.338 11.5396 14.201C11.4082 14.1466 11.167 14.0467 10.8772 14.1208C10.939 13.8662 11.0462 13.5787 11.1624 13.2673L11.2111 13.1363C11.266 12.9887 11.3349 12.8357 11.4077 12.6738C11.8013 11.7995 12.3403 10.602 11.7553 7.8966C11.5361 6.88332 10.8045 6.38852 9.69524 6.50342C9.03022 6.57223 8.42188 6.84055 8.11845 6.99439C8.05321 7.02746 7.99353 7.05937 7.93779 7.09049C8.02245 6.0695 8.34247 4.16151 9.5394 2.95434C10.293 2.19431 11.2966 1.81897 12.5195 1.83918C14.929 1.87865 16.4741 3.11516 17.346 4.14555C18.0974 5.03349 18.5043 5.92789 18.6667 6.41025C17.4456 6.28612 16.615 6.52719 16.194 7.12907C15.2781 8.43833 16.6951 10.9796 17.3761 12.2009C17.501 12.4247 17.6088 12.6182 17.6427 12.7003C17.8645 13.2378 18.1516 13.5966 18.3612 13.8586C18.4255 13.9389 18.4878 14.0167 18.5352 14.0847C18.1654 14.1913 17.501 14.4376 17.5616 15.6691C17.5127 16.287 17.1655 19.1799 16.9891 20.202C16.7563 21.5523 16.2594 22.0553 14.8622 22.3549ZM20.9084 15.4358C20.5302 15.6113 19.8973 15.743 19.2961 15.7713C18.632 15.8024 18.294 15.6969 18.2144 15.632C18.1771 14.8646 18.4628 14.7844 18.765 14.6996C18.8125 14.6862 18.8589 14.6732 18.9036 14.6576C18.9314 14.6802 18.9619 14.7027 18.9952 14.7247C19.529 15.077 20.481 15.115 21.8249 14.8376C21.8299 14.8365 21.8348 14.8356 21.8397 14.8346C21.6584 15.004 21.3482 15.2315 20.9084 15.4358Z" fill="white"/>
</g>
</g>
</g>
<defs>
<clipPath id="clip0_8_161">
<rect width="24" height="24" fill="white"/>
</clipPath>
<clipPath id="clip1_8_161">
<rect width="22.7344" height="23.4375" fill="white" transform="translate(0.65625 0.28125)"/>
</clipPath>
<clipPath id="clip2_8_161">
<rect width="22.7273" height="23.4375" fill="white" transform="translate(0.65625 0.28125)"/>
</clipPath>
</defs>
</svg>
