<svg width="46" height="34" viewBox="0 0 46 34" fill="none" xmlns="http://www.w3.org/2000/svg">
<g id="Group">
<g id="Group_2">
<g id="Group_3">
<path id="Vector" d="M23.8279 23.34C15.8728 16.7163 6.74083 10.2969 4.50736 8.74426C4.36375 8.82688 4.21504 8.90159 4.05824 8.96118L3.05488 9.34368C1.91319 9.8559 1.12094 10.9264 0.964851 12.1679C0.802254 13.461 1.43049 14.7254 2.55901 15.377L29.5712 30.9724C37.1433 35.3443 41.9323 32.9549 43.7184 31.6427C44.0389 31.4073 44.3111 31.1169 44.5279 30.7917C40.698 31.5655 32.5716 30.6205 23.8279 23.34Z" fill="#DAE6F1"/>
</g>
</g>
<g id="Group_4">
<g id="Group_5">
<path id="Vector_2" d="M4.50736 8.74426C4.36375 8.82688 4.21504 8.90159 4.05824 8.96118L3.05488 9.34368C1.91319 9.8559 1.12094 10.9264 0.964851 12.1679C0.802254 13.461 1.43049 14.7254 2.55901 15.377L7.99538 18.5157L16.5786 17.5674C11.0206 13.307 6.07181 9.83182 4.50736 8.74426Z" fill="#FED7AA"/>
</g>
</g>
<g id="Group_6">
<g id="Group_7">
<path id="Vector_3" d="M28.6086 7.36631C27.9181 5.98133 26.026 5.79641 25.0645 7.00912C24.2399 8.04922 23.6504 9.289 23.3025 10.1405C23.8595 9.99739 24.3524 9.82917 24.7499 9.67483C25.3952 9.42417 26.1268 9.64372 26.5305 10.2059L33.059 19.2929C33.5364 19.9573 34.3287 20.321 35.1438 20.2498C35.4359 20.2243 35.7251 20.2574 35.9993 20.3379C33.2112 16.3573 30.1738 10.5058 28.6086 7.36631Z" fill="#DAE6F1"/>
</g>
</g>
<g id="Group_8">
<g id="Group_9">
<path id="Vector_4" d="M44.8422 27.9369C44.6713 27.5092 44.3592 27.1508 43.967 26.9095C41.1237 25.1599 38.3301 22.3523 37.0351 20.9712C36.5489 20.4527 35.8524 20.1876 35.1442 20.2495C34.3291 20.3207 33.5369 19.957 33.0595 19.2925L26.531 10.2055C26.127 9.6434 25.3956 9.42367 24.7503 9.67451C23.127 10.3052 19.9225 11.1683 17.185 9.58785C14.3567 7.9552 14.0939 4.27804 14.1537 2.44113C14.176 1.75436 13.8201 1.11206 13.2251 0.768581C12.6269 0.423172 11.8882 0.441452 11.3015 0.805846C8.20002 2.73205 6.52606 5.70714 5.79868 7.32573C5.52815 7.9276 5.07253 8.41926 4.50757 8.74428C6.74104 10.2969 15.873 16.7163 23.8283 23.3401C32.572 30.6204 40.6984 31.5654 44.5281 30.7917C44.8394 30.3249 45.0322 29.784 45.0575 29.2136C45.0804 28.7029 44.9758 28.2712 44.8422 27.9369Z" fill="#F97316"/>
</g>
</g>
<g id="Group_10">
<g id="Group_11">
<path id="Vector_5" d="M44.842 27.9369C44.6711 27.5092 44.3589 27.1508 43.9668 26.9095C41.1235 25.1599 38.3298 22.3523 37.0348 20.9712C36.5486 20.4527 35.8522 20.1876 35.144 20.2495C34.7319 20.2855 34.3261 20.2096 33.9634 20.0406C33.1758 21.4219 30.8263 24.4009 25.2085 24.4383C33.4183 30.7116 40.9004 31.5244 44.5279 30.7917C44.8392 30.3249 45.032 29.784 45.0573 29.2136C45.0802 28.7029 44.9756 28.2712 44.842 27.9369Z" fill="#71717A"/>
</g>
</g>
<g id="Group_12">
<g id="Group_13">
<path id="Vector_6" d="M44.8421 27.9369C44.6712 27.5092 44.3591 27.1508 43.9669 26.9095C43.867 26.8481 43.7674 26.785 43.6677 26.7212C43.0836 27.4282 41.9292 28.2691 39.8485 27.923C36.7221 27.403 33.1859 26.7456 31.4749 28.322C37.0849 31.0292 41.854 31.3319 44.5278 30.7917C44.8391 30.3249 45.0319 29.784 45.0573 29.2136C45.0803 28.7029 44.9757 28.2712 44.8421 27.9369Z" fill="#9A3412"/>
</g>
</g>
<g id="Group_14">
<g id="Group_15">
<path id="Vector_7" d="M14.1535 2.44113C14.1758 1.75436 13.8199 1.11206 13.2249 0.768581C12.6267 0.423172 11.8881 0.441452 11.3013 0.805846C10.9705 1.01133 10.6594 1.23071 10.3604 1.45711C10.5774 3.2717 11.5975 6.41659 15.8324 8.45828C14.2687 6.62014 14.1052 3.92806 14.1535 2.44113Z" fill="#DAE6F1"/>
</g>
</g>
<g id="Group_16">
<g id="Group_17">
<path id="Vector_8" d="M20.6691 10.4836C19.9025 10.4783 19.1071 10.3701 18.326 10.1038C21.2279 15.6314 18.5487 17.1677 16.606 17.5882C18.5406 19.0714 20.5482 20.6495 22.5125 22.255C25.9164 19.0591 22.0647 12.5779 20.6691 10.4836Z" fill="#FDBA74"/>
</g>
</g>
<g id="Group_18">
<g id="Group_19">
<path id="Vector_9" d="M44.7716 30.4261C44.5693 30.2916 44.2967 30.346 44.1622 30.5481C43.9687 30.8381 43.7321 31.0874 43.4582 31.2885C38.5095 34.9243 32.2513 32.0125 29.7909 30.5919L2.77904 14.9966C1.80117 14.432 1.26012 13.3432 1.4011 12.2228C1.53663 11.1449 2.23447 10.1983 3.22377 9.74974L4.21482 9.37198C4.38023 9.30905 4.54792 9.22819 4.72687 9.12519C4.9371 9.00407 5.00935 8.73531 4.88824 8.52507C4.7673 8.31449 4.49818 8.24277 4.28812 8.36353C4.14996 8.44316 4.02357 8.50433 3.90193 8.55074L2.89857 8.93324C2.89066 8.93622 2.88293 8.93939 2.8752 8.9429C1.60202 9.51419 0.703249 10.729 0.52905 12.1133C0.343953 13.5854 1.05463 15.016 2.33959 15.7577L29.3516 31.3532C32.6864 33.2785 35.5077 33.9196 37.7872 33.9194C40.8633 33.9194 42.952 32.7513 43.9789 31.9969C44.3355 31.7348 44.6433 31.4114 44.8936 31.0355C45.0281 30.8336 44.9736 30.5608 44.7716 30.4261Z" fill="black"/>
</g>
</g>
<g id="Group_20">
<g id="Group_21">
<path id="Vector_10" d="M30.6883 9.43882C30.5778 9.22278 30.3132 9.137 30.097 9.24774L26.5128 11.0815C26.2968 11.1921 26.2112 11.4568 26.3218 11.6728C26.3995 11.8249 26.5534 11.9122 26.7134 11.9122C26.7807 11.9122 26.8491 11.8968 26.9133 11.8639L30.4974 10.0301C30.7135 9.91975 30.7989 9.65485 30.6883 9.43882Z" fill="black"/>
</g>
</g>
<g id="Group_22">
<g id="Group_23">
<path id="Vector_11" d="M35.0973 17.2158C34.9868 16.9998 34.722 16.9142 34.506 17.0248L31.8693 18.3737C31.6532 18.4843 31.5676 18.749 31.6782 18.965C31.7559 19.1171 31.9099 19.2044 32.0698 19.2044C32.1372 19.2044 32.2055 19.189 32.2697 19.1561L34.9064 17.8072C35.1225 17.6968 35.2079 17.4319 35.0973 17.2158Z" fill="black"/>
</g>
</g>
<g id="Group_24">
<g id="Group_25">
<path id="Vector_12" d="M33.9565 15.2914C33.8459 15.0753 33.581 14.9895 33.3652 15.1003L30.5302 16.5506C30.3141 16.6612 30.2285 16.9259 30.3391 17.142C30.4168 17.294 30.5708 17.3814 30.7307 17.3814C30.7981 17.3814 30.8664 17.3659 30.9306 17.333L33.7656 15.8827C33.9816 15.7723 34.0671 15.5074 33.9565 15.2914Z" fill="black"/>
</g>
</g>
<g id="Group_26">
<g id="Group_27">
<path id="Vector_13" d="M32.8428 13.3532C32.7322 13.1371 32.4677 13.0515 32.2515 13.1621L29.1913 14.7278C28.9753 14.8383 28.8897 15.1031 29.0002 15.3191C29.0779 15.4711 29.2319 15.5585 29.3919 15.5585C29.4592 15.5585 29.5276 15.543 29.5917 15.5102L32.6519 13.9445C32.8679 13.8339 32.9534 13.5692 32.8428 13.3532Z" fill="black"/>
</g>
</g>
<g id="Group_28">
<g id="Group_29">
<path id="Vector_14" d="M31.7696 11.3939C31.6591 11.1779 31.3943 11.0923 31.1783 11.2029L27.8522 12.9046C27.6362 13.0152 27.5506 13.2799 27.6611 13.4959C27.7388 13.648 27.8928 13.7353 28.0528 13.7353C28.1201 13.7353 28.1885 13.7199 28.2526 13.687L31.5787 11.9853C31.7946 11.8747 31.8802 11.61 31.7696 11.3939Z" fill="black"/>
</g>
</g>
<g id="Group_30">
<g id="Group_31">
<path id="Vector_15" d="M32.4851 21.8487L23.5832 9.8415C23.4389 9.64656 23.1638 9.6056 22.9685 9.75009C22.7738 9.89458 22.7326 10.1699 22.8771 10.3648L31.779 22.372C31.8651 22.4884 31.9978 22.5497 32.1323 22.5497C32.2234 22.5497 32.315 22.5216 32.3937 22.4633C32.5886 22.3189 32.6296 22.0437 32.4851 21.8487Z" fill="black"/>
</g>
</g>
<g id="Group_32">
<g id="Group_33">
<path id="Vector_16" d="M16.9252 17.5293C16.8986 17.2879 16.6798 17.1146 16.44 17.1408L8.0632 18.0663C7.82203 18.0928 7.64801 18.3101 7.67455 18.5513C7.69951 18.7761 7.88988 18.9426 8.11084 18.9426C8.12701 18.9426 8.14336 18.9417 8.15953 18.9399L16.5364 18.0144C16.7779 17.9877 16.9519 17.7704 16.9252 17.5293Z" fill="black"/>
</g>
</g>
<g id="Group_34">
<g id="Group_35">
<path id="Vector_17" d="M36.2726 19.9608C33.5215 16.0022 30.5366 10.248 29.0022 7.17007C28.6125 6.38855 27.8617 5.86788 26.9935 5.77736C26.1183 5.68595 25.2686 6.04454 24.7203 6.73606C23.911 7.757 23.3241 8.95811 22.9739 9.78604C22.8796 10.0095 22.9841 10.2673 23.2076 10.3619C23.4312 10.4563 23.6888 10.3517 23.7834 10.1281C24.1121 9.35045 24.6609 8.22545 25.4089 7.28204C25.7696 6.82729 26.3294 6.59157 26.9021 6.65151C27.478 6.71163 27.9566 7.0435 28.2154 7.56223C29.7603 10.6614 32.7677 16.4583 35.5507 20.4624C35.636 20.5853 35.7729 20.651 35.9119 20.651C35.9984 20.651 36.086 20.6256 36.1624 20.5725C36.3619 20.434 36.4112 20.1601 36.2726 19.9608Z" fill="black"/>
</g>
</g>
<g id="Group_36">
<g id="Group_37">
<g id="Group_38">
<g id="Group_39">
<path id="Vector_18" d="M45.2503 27.7739C45.0485 27.2688 44.6745 26.829 44.1974 26.5352C41.4347 24.8354 38.725 22.1314 37.3559 20.6708C36.7744 20.051 35.9561 19.7387 35.1059 19.8118C34.4504 19.8694 33.8012 19.5722 33.4163 19.0362L26.8878 9.94926C26.3664 9.22363 25.4219 8.94221 24.591 9.26494C23.009 9.87965 19.9718 10.6895 17.4046 9.20728C16.2935 8.56569 14.4504 6.83548 14.593 2.4552C14.6206 1.60477 14.1806 0.812526 13.4448 0.38784C12.7082 -0.0371981 11.7982 -0.0203229 11.0694 0.432488C7.8653 2.42268 6.14072 5.49269 5.39769 7.14555C5.16777 7.6569 4.78422 8.07807 4.28816 8.36336C4.15773 8.43842 4.07477 8.57518 4.06826 8.72565C4.06193 8.87594 4.13295 9.0192 4.25652 9.10516C6.79866 10.8725 15.7028 17.1468 23.5467 23.6779C30.516 29.481 37.3297 31.4636 41.9984 31.4636C42.9689 31.4636 43.8476 31.3778 44.6149 31.2228C44.7288 31.1997 44.8292 31.1324 44.8935 31.0357C45.26 30.4861 45.4685 29.8627 45.4964 29.2333C45.5189 28.7297 45.4361 28.2387 45.2503 27.7739ZM44.2577 30.395C42.6811 30.6624 34.3748 31.5499 24.1094 23.0024C16.7004 16.8334 8.35292 10.8958 5.27201 8.74147C5.66874 8.40344 5.98427 7.98455 6.19943 7.50573C6.90132 5.94427 8.52747 3.04582 11.5333 1.17903C11.9861 0.897604 12.5502 0.886178 13.0053 1.14897C13.4599 1.41141 13.7316 1.90096 13.7144 2.42672C13.5571 7.26491 15.6835 9.22855 16.9651 9.96842C19.85 11.6339 23.1805 10.7557 24.9092 10.0841C25.3669 9.90672 25.8867 10.0621 26.1739 10.4618L32.7024 19.5488C33.2674 20.3353 34.2168 20.7715 35.1823 20.6872C35.7603 20.6369 36.3189 20.8496 36.7144 21.2716C38.1138 22.7642 40.8868 25.5299 43.7365 27.2835C44.0541 27.4788 44.3018 27.7687 44.4342 28.0998C44.5732 28.4479 44.6353 28.816 44.6186 29.1939C44.6001 29.6066 44.476 30.0185 44.2577 30.395Z" fill="black"/>
</g>
</g>
</g>
</g>
<g id="Group_40">
<g id="Group_41">
<path id="Vector_19" d="M34.1194 19.7825C33.9109 19.6582 33.6411 19.7261 33.5166 19.9345C32.6246 21.4285 30.367 23.9429 25.2716 23.9986C25.0289 24.0012 24.8345 24.2 24.8369 24.4428C24.8397 24.684 25.0359 24.8775 25.2762 24.8775H25.2811C27.7243 24.8508 29.8286 24.2791 31.5351 23.1786C32.9705 22.2529 33.8153 21.1485 34.2711 20.3851C34.3957 20.1768 34.3275 19.9069 34.1194 19.7825Z" fill="black"/>
</g>
</g>
<g id="Group_42">
<g id="Group_43">
<path id="Vector_20" d="M43.9037 26.4497C43.7202 26.2909 43.4428 26.3111 43.2839 26.4947C42.7479 27.1145 41.7295 27.7902 39.9208 27.4894L39.5962 27.4353C36.5557 26.9274 33.109 26.3514 31.2738 27.9134C31.0889 28.0707 31.0666 28.3481 31.2241 28.5328C31.3109 28.635 31.4345 28.6873 31.5588 28.6873C31.6595 28.6873 31.7608 28.6529 31.8434 28.5826C33.3674 27.2855 36.5998 27.8255 39.4512 28.302L39.7765 28.3564C41.9875 28.7241 43.2658 27.8594 43.9487 27.0695C44.1074 26.8859 44.0874 26.6084 43.9037 26.4497Z" fill="black"/>
</g>
</g>
<g id="Group_44">
<g id="Group_45">
<path id="Vector_21" d="M15.9378 8.02092C12.214 6.19297 11.0997 3.5139 10.8208 1.58822C10.786 1.34793 10.5627 1.18147 10.3228 1.21627C10.0827 1.25107 9.91622 1.47396 9.95085 1.71426C10.2041 3.46204 11.2683 6.70783 15.5505 8.81C15.6127 8.84058 15.6787 8.855 15.7439 8.855C15.9063 8.855 16.0624 8.76465 16.1387 8.60908C16.2456 8.39129 16.1556 8.12797 15.9378 8.02092Z" fill="black"/>
</g>
</g>
<g id="Group_46">
<g id="Group_47">
<path id="Vector_22" d="M21.1302 10.3843C20.9969 10.1814 20.7246 10.1248 20.5216 10.2581C20.3187 10.3913 20.2621 10.6638 20.3954 10.8666C21.5845 12.6773 25.2388 18.8175 22.3436 21.8046C22.1746 21.9788 22.1789 22.257 22.3532 22.426C22.4387 22.5087 22.5489 22.5499 22.6591 22.5499C22.7737 22.5499 22.8885 22.5052 22.9746 22.4163C26.2334 19.0545 22.7702 12.8821 21.1302 10.3843Z" fill="black"/>
</g>
</g>
<g id="Group_48">
<g id="Group_49">
<path id="Vector_23" d="M18.7889 10.0415C18.6778 9.82581 18.4131 9.74074 18.1971 9.85165C17.9812 9.96257 17.8963 10.2276 18.0072 10.4435C19.138 12.6418 19.4439 14.3457 18.9164 15.5074C18.5578 16.2977 17.8063 16.84 16.6829 17.1191C16.4473 17.1777 16.3039 17.416 16.3624 17.6516C16.412 17.8514 16.5915 17.985 16.7885 17.985C16.8235 17.985 16.8592 17.9808 16.8947 17.972C18.2723 17.6298 19.2481 16.9031 19.7169 15.8706C20.3606 14.452 20.0486 12.4908 18.7889 10.0415Z" fill="black"/>
</g>
</g>
</g>
</svg>
